<?xml version="1.0" encoding="utf-8"?>
<!-- Generator: Adobe Illustrator 16.0.0, SVG Export Plug-In . SVG Version: 6.00 Build 0)  -->
<!DOCTYPE svg PUBLIC "-//W3C//DTD SVG 1.1//EN" "http://www.w3.org/Graphics/SVG/1.1/DTD/svg11.dtd">
<svg version="1.1" id="Layer_1" xmlns="http://www.w3.org/2000/svg" xmlns:xlink="http://www.w3.org/1999/xlink" x="0px" y="0px"
	 width="2500px" height="2500px" viewBox="0 0 2500 2500" enable-background="new 0 0 2500 2500" xml:space="preserve">
<g>
	<path fill="#FED606" d="M2305.526,1250.172c0,584.162-473.545,1057.707-1057.697,1057.707S190.125,1834.334,190.125,1250.172
		c0-584.144,473.551-1057.692,1057.704-1057.692S2305.526,666.028,2305.526,1250.172z"/>
	<path stroke="#000000" stroke-width="1.3387" stroke-miterlimit="10" d="M962.282,1004.9c0,117.88-64.788,213.436-144.71,213.436
		c-79.916,0-144.701-95.556-144.701-213.436c0-117.879,64.785-213.439,144.701-213.439
		C897.494,791.461,962.282,887.021,962.282,1004.9z"/>
	<path stroke="#000000" stroke-width="1.3387" stroke-miterlimit="10" d="M1823.611,1004.9c0,117.88-64.78,213.436-144.702,213.436
		c-79.918,0-144.701-95.556-144.701-213.436c0-117.879,64.783-213.439,144.701-213.439
		C1758.831,791.461,1823.611,887.021,1823.611,1004.9z"/>
	<g>
		<path stroke="#000000" stroke-width="1.3387" stroke-miterlimit="10" d="M1753.634,1382.783c0,299.898-226.274,543-505.428,543
			c-279.133,0-505.427-243.102-505.427-543H1753.634z"/>
		<path fill="#EE2D24" d="M876.366,1750.433c0,0,129.577-121.323,371.84-121.206c0,0,168.516-8.353,371.92,121.206
			c0,0-144.979,187.458-378.38,181.717c0,0-109.542,4.364-238.219-69.582C971.919,1844.417,898.331,1782.221,876.366,1750.433z"/>
	</g>
</g>
</svg>
